<svg id="Layer_3" enable-background="new 0 0 64 64" height="512" viewBox="0 0 64 64" width="512" xmlns="http://www.w3.org/2000/svg"><path d="m6 62c-2.209 0-4-1.791-4-4v-18h8v18c0 2.209-1.791 4-4 4z" fill="#806e5c"/><path d="m4.5 61.703c1.465-.594 2.5-2.025 2.5-3.703v-18h-5v18c0 1.678 1.035 3.109 2.5 3.703z" fill="#ab927a"/><path d="m8 40v-17c0-3.866 3.134-7 7-7 3.866 0 7 3.134 7 7v20c0 6.075 4.925 11 11 11 6.075 0 11-4.925 11-11v-32.5c0-2.485 2.015-4.5 4.5-4.5 2.485 0 4.5 2.015 4.5 4.5v20.5c0 1.105.895 2 2 2 1.105 0 2-.895 2-2v-20.5c0-4.694-3.806-8.5-8.5-8.5-4.694 0-8.5 3.806-8.5 8.5v32.5c0 3.866-3.134 7-7 7-3.866 0-7-3.134-7-7v-20c0-6.075-4.925-11-11-11-6.075 0-11 4.925-11 11v17z" fill="#ccc"/><path d="m6 63c-2.757 0-5-2.243-5-5v-18c0-.553.447-1 1-1h8c.553 0 1 .447 1 1v18c0 2.757-2.243 5-5 5zm-3-22v17c0 1.654 1.346 3 3 3s3-1.346 3-3v-17z"/><path d="m33 55c-6.617 0-12-5.383-12-12v-20c0-3.309-2.691-6-6-6s-6 2.691-6 6v17h-2v-17c0-4.411 3.589-8 8-8s8 3.589 8 8v20c0 5.514 4.486 10 10 10s10-4.486 10-10v-32.5c0-3.032 2.468-5.5 5.5-5.5s5.5 2.468 5.5 5.5v20.5c0 .552.448 1 1 1s1-.448 1-1v-20.5c0-4.136-3.364-7.5-7.5-7.5s-7.5 3.364-7.5 7.5v32.5c0 4.411-3.589 8-8 8s-8-3.589-8-8v-20c0-5.514-4.486-10-10-10s-10 4.486-10 10v17h-2v-17c0-6.617 5.383-12 12-12s12 5.383 12 12v20c0 3.309 2.691 6 6 6s6-2.691 6-6v-32.5c0-5.238 4.262-9.5 9.5-9.5s9.5 4.262 9.5 9.5v20.5c0 1.654-1.346 3-3 3s-3-1.346-3-3v-20.5c0-1.93-1.57-3.5-3.5-3.5s-3.5 1.57-3.5 3.5v32.5c0 6.617-5.383 12-12 12z"/><path d="m58 45c-.26 0-.516-.102-.707-.293l-2.293-2.293-2.293 2.293c-.287.286-.716.372-1.09.217-.374-.154-.617-.52-.617-.924v-3h-3c-.404 0-.77-.243-.924-.617-.155-.374-.069-.804.217-1.09l4-4 1.414 1.414-2.293 2.293h1.586c.553 0 1 .447 1 1v1.586l1.293-1.293c.391-.391 1.023-.391 1.414 0l1.293 1.293v-1.586c0-.553.447-1 1-1h1.586l-2.293-2.293 1.414-1.414 4 4c.286.286.372.716.217 1.09-.154.374-.52.617-.924.617h-3v3c0 .404-.243.77-.617.924-.124.052-.254.076-.383.076z"/><path d="m2 43h8v2h-8z"/></svg>