<svg id="Layer_1" enable-background="new 0 0 256 256" height="512" viewBox="0 0 256 256" width="512" xmlns="http://www.w3.org/2000/svg"><g><g><g><path d="m245.866 117.974h-11.704c-3.201-54.702-45.949-100.573-102.158-105.974-62.118-5.969-117.511 39.712-123.48 101.831-5.969 62.118 39.712 117.51 101.83 123.479 3.667.352 6.925-2.334 7.277-6.001s-2.334-6.925-6.001-7.277c-54.796-5.265-95.093-54.129-89.828-108.925s54.129-95.093 108.925-89.828c49.313 4.738 86.876 44.789 90.063 92.695h-11.759c-1.762 0-2.762 2.019-1.694 3.42l18.417 24.172c.852 1.119 2.536 1.119 3.388 0l18.417-24.172c1.07-1.402.07-3.42-1.693-3.42z" fill="#a4c9ff"/></g></g><g><g><g><path d="m128 184.329c-31.754 0-57.496-25.742-57.496-57.496v-18.41c0-5.235 4.244-9.478 9.478-9.478h105.514v27.888c0 31.754-25.742 57.496-57.496 57.496z" fill="#4671c6"/></g></g><g><g><path d="m128 186.329c-32.806 0-59.496-26.689-59.496-59.496v-18.41c0-6.329 5.149-11.479 11.478-11.479h105.514c1.104 0 2 .896 2 2v27.889c0 32.807-26.689 59.496-59.496 59.496zm-48.018-85.385c-4.124 0-7.478 3.354-7.478 7.479v18.41c0 30.601 24.896 55.496 55.496 55.496s55.496-24.896 55.496-55.496v-25.889z" fill="#3762cc"/></g></g><g><g><path d="m189.439 244.524v-18.417c0-12.567-10.188-22.755-22.755-22.755h-77.368c-12.567 0-22.755 10.188-22.755 22.755v18.417z" fill="#6bdddd"/></g></g><g><g><path d="m128 200.063c-8.217 0-15.955-2.014-22.753-5.56v10.669.003c0 12.554 10.177 22.731 22.731 22.731 12.554 0 22.731-10.177 22.731-22.731v-.003-10.645c-6.787 3.531-14.51 5.536-22.709 5.536z" fill="#f9cfcf"/></g></g><g><g><path d="m176.97 133.089v-4.585c0-26.802-21.924-48.529-48.97-48.529-27.045 0-48.97 21.727-48.97 48.529v4.585c-8.503-.172-15.249 6.601-15.249 14.79 0 8.744 7.633 15.66 16.543 14.718 5.054 21.471 24.475 37.467 47.676 37.467 23.203 0 42.623-15.998 47.676-37.467 8.898.941 16.543-5.962 16.543-14.718 0-8.192-6.751-14.962-15.249-14.79z" fill="#f9cfcf"/></g></g><g><g><path d="m153.423 157.963c-3.418 0-6.189-2.771-6.189-6.189v-6.602c0-3.418 2.771-6.189 6.189-6.189 3.418 0 6.189 2.771 6.189 6.189v6.602c.001 3.418-2.77 6.189-6.189 6.189z" fill="#3762cc"/></g></g><g><g><path d="m102.564 157.963c-3.418 0-6.189-2.771-6.189-6.189v-6.602c0-3.418 2.771-6.189 6.189-6.189 3.418 0 6.189 2.771 6.189 6.189v6.602c.001 3.418-2.77 6.189-6.189 6.189z" fill="#3762cc"/></g></g><g><g><path d="m128 202.063c-23.246 0-43.246-15.287-49.212-37.383-.018 0-.036 0-.054 0-4.193 0-8.266-1.54-11.392-4.353-3.534-3.181-5.561-7.718-5.561-12.449 0-4.529 1.789-8.776 5.038-11.961 2.787-2.73 6.356-4.38 10.211-4.752v-2.662c0-27.861 22.865-50.528 50.97-50.528 28.104 0 50.97 22.667 50.97 50.528v2.662c3.855.372 7.424 2.021 10.212 4.753 3.249 3.184 5.038 7.432 5.038 11.96 0 4.731-2.026 9.269-5.56 12.448-3.126 2.813-7.2 4.354-11.393 4.354-.019 0-.036 0-.055 0-5.966 22.096-25.966 37.383-49.212 37.383zm-47.675-41.466c.918 0 1.731.631 1.945 1.542 4.979 21.152 23.783 35.925 45.729 35.925s40.751-14.772 45.729-35.925c.231-.981 1.157-1.626 2.157-1.531 3.691.391 7.366-.796 10.098-3.254 2.691-2.422 4.235-5.875 4.235-9.475 0-3.444-1.363-6.678-3.838-9.103-2.499-2.449-5.801-3.77-9.372-3.688-.51.002-1.056-.195-1.439-.571-.385-.376-.601-.892-.601-1.429v-4.585c0-25.656-21.07-46.528-46.97-46.528s-46.97 20.872-46.97 46.528v4.585c0 .537-.216 1.053-.6 1.429s-.898.56-1.44.571c-3.517-.067-6.872 1.237-9.371 3.687-2.475 2.425-3.838 5.658-3.838 9.104 0 3.599 1.544 7.053 4.237 9.476 2.729 2.456 6.408 3.645 10.096 3.253.073-.007.143-.011.213-.011z" fill="#3762cc"/></g></g><g><g><path d="m189.438 246.524h-122.876c-1.104 0-2-.896-2-2v-18.418c0-13.649 11.105-24.755 24.755-24.755h13.93v-6.848c0-.699.365-1.348.963-1.71.598-.364 1.342-.387 1.962-.063 6.691 3.489 14.239 5.333 21.829 5.333 7.573 0 15.106-1.836 21.786-5.311.62-.322 1.362-.297 1.961.064.597.363.962 1.011.962 1.71v6.824h13.975c13.649 0 24.755 11.105 24.755 24.755v18.418c-.002 1.106-.897 2.001-2.002 2.001zm-120.876-4h118.877v-16.418c0-11.444-9.311-20.755-20.755-20.755h-15.975c-1.104 0-2-.896-2-2v-5.647c-6.487 2.859-13.583 4.359-20.709 4.359-7.143 0-14.254-1.507-20.753-4.38v5.668c0 1.104-.896 2-2 2h-15.93c-11.444 0-20.755 9.311-20.755 20.755z" fill="#3762cc"/></g></g><g><g><path d="m160.93 119.086h-55.912c-13.959 0-25.275-11.316-25.275-25.275 0-13.959 11.316-25.275 25.275-25.275h80.964v25.499c0 13.835-11.216 25.051-25.052 25.051z" fill="#4671c6"/></g></g><g><g><path d="m160.93 121.086h-55.912c-15.04 0-27.275-12.235-27.275-27.275s12.236-27.275 27.275-27.275h80.963c1.104 0 2 .896 2 2v25.499c0 14.915-12.135 27.051-27.051 27.051zm-55.912-50.551c-12.834 0-23.275 10.441-23.275 23.275s10.441 23.275 23.275 23.275h55.912c12.711 0 23.052-10.341 23.052-23.052v-23.498z" fill="#3762cc"/></g></g><g><g><path d="m127.978 177.535c-1.964 0-3.68-.231-5.244-.707-2.593-.788-4.868-2.116-6.578-3.841-.778-.784-.773-2.05.011-2.828.784-.777 2.05-.773 2.829.012 1.245 1.255 2.94 2.234 4.902 2.831 1.181.358 2.515.533 4.08.533 1.564 0 2.899-.175 4.08-.533 1.962-.597 3.656-1.576 4.902-2.832.779-.784 2.043-.789 2.829-.011.783.778.788 2.045.011 2.829-1.711 1.724-3.985 3.052-6.578 3.84-1.565.476-3.28.707-5.244.707z" fill="#3762cc"/></g></g></g><g><g><g><circle cx="220.11" cy="183.742" fill="#4671c6" r="26.791"/></g></g><g><g><circle cx="35.89" cy="183.742" fill="#f9a7a7" r="26.791"/></g></g><g><g><path d="m50 189.579h-29c-.552 0-1-.448-1-1v-8.5c0-.552.448-1 1-1h29c.552 0 1 .448 1 1v8.5c0 .553-.448 1-1 1z" fill="#e0ebfc"/></g></g><g><g><path d="m234.61 179.079h-9.25v-9.25c0-.552-.448-1-1-1h-8.5c-.552 0-1 .448-1 1v9.25h-9.25c-.552 0-1 .448-1 1v8.5c0 .552.448 1 1 1h9.25v9.25c0 .552.448 1 1 1h8.5c.552 0 1-.448 1-1v-9.25h9.25c.552 0 1-.448 1-1v-8.5c0-.552-.448-1-1-1z" fill="#a4c9ff"/></g></g><g><g><path d="m220.109 212.532c-15.875 0-28.791-12.915-28.791-28.79s12.916-28.791 28.791-28.791 28.791 12.916 28.791 28.791-12.916 28.79-28.791 28.79zm0-53.581c-13.67 0-24.791 11.121-24.791 24.791 0 13.669 11.121 24.79 24.791 24.79s24.791-11.121 24.791-24.79c0-13.67-11.121-24.791-24.791-24.791z" fill="#3762cc"/></g></g><g><g><path d="m35.89 212.532c-15.875 0-28.791-12.915-28.791-28.79s12.916-28.791 28.791-28.791 28.791 12.916 28.791 28.791-12.915 28.79-28.791 28.79zm0-53.581c-13.669 0-24.791 11.121-24.791 24.791 0 13.669 11.121 24.79 24.791 24.79s24.791-11.121 24.791-24.79c0-13.67-11.121-24.791-24.791-24.791z" fill="#3762cc"/></g></g></g></g></svg>